<?xml version="1.0" encoding="UTF-8"?>
<svg width="1684px" height="1004px" viewBox="0 0 1684 1004" version="1.1" xmlns="http://www.w3.org/2000/svg" xmlns:xlink="http://www.w3.org/1999/xlink">
    <!-- Generator: Sketch 48.2 (47327) - http://www.bohemiancoding.com/sketch -->
    <title>html lesson image copy 3</title>
    <desc>Created with Sketch.</desc>
    <defs></defs>
    <g id="html-lesson" stroke="none" stroke-width="1" fill="none" fill-rule="evenodd">
        <g id="html-lesson-image-copy-3">
            <g id="Group-2" transform="translate(140.000000, 138.000000)">
                <polyline id="Stroke-4" stroke="#DBE5FD" stroke-width="4" points="20 412 20 161 1384 161 1384 412"></polyline>
                <path d="M702,160.557652 L702,92" id="Stroke-5" stroke="#DBE5FD" stroke-width="4"></path>
                <g id="Group" transform="translate(271.000000, 286.000000)" stroke="#FFFFFF" stroke-width="4">
                    <polyline id="Stroke-4-Copy" points="0 73 0 36 794 36 794 73"></polyline>
                    <path d="M400,37 L400,0" id="Stroke-5-Copy"></path>
                </g>
                <g id="Group-Copy-2" transform="translate(133.500000, 613.000000) rotate(-180.000000) translate(-133.500000, -613.000000) translate(17.000000, 576.000000)" stroke="#FFFFFF" stroke-width="4">
                    <polyline id="Stroke-4-Copy" points="0.98046875 73.2813 0.98046875 36 232.207031 36 232.207031 73.2813"></polyline>
                    <path d="M117,36.5576518 L117,0" id="Stroke-5-Copy"></path>
                </g>
                <g id="Group-Copy-3" transform="translate(1232.500000, 613.500000) rotate(-180.000000) translate(-1232.500000, -613.500000) translate(1087.000000, 577.000000)" stroke="#FFFFFF" stroke-width="4">
                    <polyline id="Stroke-4-Copy" points="0 73 0 36 291 36 291 73"></polyline>
                    <path d="M146.5,37 L146.5,0" id="Stroke-5-Copy"></path>
                </g>
                <path d="M618.443359,14.0253906 C616.360016,14.0253906 614.659186,14.7618741 613.34082,16.2348633 C612.022454,17.7078524 611.24935,19.7219924 611.021484,22.2773438 L625.157227,22.2773438 C625.157227,19.6243357 624.559088,17.5857819 623.362793,16.1616211 C622.166498,14.7374603 620.526703,14.0253906 618.443359,14.0253906 Z M619.249023,38.5615234 C615.35903,38.5615234 612.295096,37.3245566 610.057129,34.8505859 C607.819162,32.3766152 606.700195,28.9912324 606.700195,24.6943359 C606.700195,20.5439246 607.782541,17.1788866 609.947266,14.5991211 C612.11199,12.0193556 614.960269,10.7050784 618.492188,10.65625 C621.812517,10.65625 624.44514,11.7914926 626.390137,14.0620117 C628.335133,16.3325309 629.307617,19.3639133 629.307617,23.15625 C629.307617,23.3515635 629.303548,23.7096328 629.29541,24.2304688 C629.287272,24.7513047 629.283203,25.1256499 629.283203,25.3535156 L610.899414,25.3535156 C610.948242,28.3971506 611.733554,30.76936 613.255371,32.4702148 C614.777189,34.1710697 616.82388,35.0214844 619.395508,35.0214844 C622.227553,35.0214844 625.067694,34.2727939 627.916016,32.7753906 L628.550781,36.0712891 C625.832669,37.7314536 622.732114,38.5615234 619.249023,38.5615234 Z M642.173828,38.4882812 C639.569648,38.4882812 637.726405,37.7884185 636.644043,36.3886719 C635.561681,34.9889253 635.020508,32.5556814 635.020508,29.0888672 L635.020508,0.817382812 L639.073242,0.573242188 L639.073242,27.4775391 C639.073242,28.5843154 639.085449,29.4713508 639.109863,30.1386719 C639.134277,30.8059929 639.195312,31.461097 639.292969,32.1040039 C639.390625,32.7469108 639.520833,33.2311182 639.683594,33.5566406 C639.846355,33.8821631 640.082355,34.1791979 640.391602,34.4477539 C640.700848,34.7163099 641.071124,34.8953446 641.502441,34.9848633 C641.933759,35.074382 642.466794,35.1191406 643.101562,35.1191406 C643.622398,35.1191406 644.647779,35.0214854 646.177734,34.8261719 L646.397461,38.0732422 C644.72102,38.3499363 643.313157,38.4882812 642.173828,38.4882812 Z M659.385742,14.0253906 C657.302398,14.0253906 655.601569,14.7618741 654.283203,16.2348633 C652.964837,17.7078524 652.191733,19.7219924 651.963867,22.2773438 L666.099609,22.2773438 C666.099609,19.6243357 665.501471,17.5857819 664.305176,16.1616211 C663.108881,14.7374603 661.469086,14.0253906 659.385742,14.0253906 Z M660.191406,38.5615234 C656.301413,38.5615234 653.237479,37.3245566 650.999512,34.8505859 C648.761545,32.3766152 647.642578,28.9912324 647.642578,24.6943359 C647.642578,20.5439246 648.724924,17.1788866 650.889648,14.5991211 C653.054373,12.0193556 655.902652,10.7050784 659.43457,10.65625 C662.754899,10.65625 665.387523,11.7914926 667.33252,14.0620117 C669.277516,16.3325309 670.25,19.3639133 670.25,23.15625 C670.25,23.3515635 670.245931,23.7096328 670.237793,24.2304688 C670.229655,24.7513047 670.225586,25.1256499 670.225586,25.3535156 L651.841797,25.3535156 C651.890625,28.3971506 652.675936,30.76936 654.197754,32.4702148 C655.719571,34.1710697 657.766263,35.0214844 660.337891,35.0214844 C663.169936,35.0214844 666.010077,34.2727939 668.858398,32.7753906 L669.493164,36.0712891 C666.775052,37.7314536 663.674497,38.5615234 660.191406,38.5615234 Z M709.922852,38 L709.922852,24.0595703 C709.922852,22.7574805 709.894369,21.6669966 709.837402,20.7880859 C709.780436,19.9091753 709.650229,19.014002 709.446777,18.1025391 C709.243326,17.1910762 708.958498,16.4708685 708.592285,15.9418945 C708.226072,15.4129205 707.717451,14.9816097 707.066406,14.6479492 C706.415361,14.3142887 705.634119,14.1474609 704.722656,14.1474609 C702.932283,14.1474609 701.406419,14.6275994 700.14502,15.5878906 C698.88362,16.5481819 697.984378,17.8990798 697.447266,19.640625 C697.300781,20.8125059 697.227539,22.0657485 697.227539,23.4003906 L697.227539,38 L693.150391,38 L693.150391,23.6201172 C693.150391,22.4156841 693.109701,21.3699589 693.02832,20.4829102 C692.94694,19.5958615 692.792319,18.7332399 692.564453,17.8950195 C692.336587,17.0567992 692.031415,16.3772813 691.648926,15.8564453 C691.266437,15.3356094 690.757816,14.9205745 690.123047,14.6113281 C689.488278,14.3020818 688.73145,14.1474609 687.852539,14.1474609 C685.899404,14.1474609 684.259609,14.6438752 682.933105,15.6367188 C681.606601,16.6295623 680.715497,17.9479084 680.259766,19.5917969 C680.113281,20.8450583 680.040039,22.2040942 680.040039,23.6689453 L680.040039,38 L675.962891,38 C675.930338,21.2518694 675.914062,12.3245498 675.914062,11.2177734 L679.332031,11.2177734 L679.844727,15.0507812 C680.658533,13.8137959 681.81412,12.7721396 683.311523,11.9257812 C684.808927,11.0794229 686.509756,10.65625 688.414062,10.65625 C689.406906,10.65625 690.322424,10.7579742 691.160645,10.9614258 C691.998865,11.1648773 692.698728,11.4212224 693.260254,11.7304688 C693.82178,12.0397151 694.322263,12.4099913 694.761719,12.8413086 C695.201174,13.2726259 695.542968,13.6957987 695.787109,14.1108398 C696.031251,14.525881 696.2347,14.9612607 696.397461,15.4169922 C698.350596,12.2431482 701.337219,10.65625 705.357422,10.65625 C708.335952,10.65625 710.520989,11.5066647 711.912598,13.2075195 C713.304206,14.9083744 714,17.4270667 714,20.7636719 L714,38 L709.922852,38 Z M729.722656,14.0253906 C727.639312,14.0253906 725.938483,14.7618741 724.620117,16.2348633 C723.301751,17.7078524 722.528647,19.7219924 722.300781,22.2773438 L736.436523,22.2773438 C736.436523,19.6243357 735.838385,17.5857819 734.64209,16.1616211 C733.445795,14.7374603 731.806,14.0253906 729.722656,14.0253906 Z M730.52832,38.5615234 C726.638327,38.5615234 723.574393,37.3245566 721.336426,34.8505859 C719.098459,32.3766152 717.979492,28.9912324 717.979492,24.6943359 C717.979492,20.5439246 719.061838,17.1788866 721.226562,14.5991211 C723.391287,12.0193556 726.239566,10.7050784 729.771484,10.65625 C733.091813,10.65625 735.724437,11.7914926 737.669434,14.0620117 C739.61443,16.3325309 740.586914,19.3639133 740.586914,23.15625 C740.586914,23.3515635 740.582845,23.7096328 740.574707,24.2304688 C740.566569,24.7513047 740.5625,25.1256499 740.5625,25.3535156 L722.178711,25.3535156 C722.227539,28.3971506 723.01285,30.76936 724.534668,32.4702148 C726.056485,34.1710697 728.103177,35.0214844 730.674805,35.0214844 C733.50685,35.0214844 736.346991,34.2727939 739.195312,32.7753906 L739.830078,36.0712891 C737.111966,37.7314536 734.011411,38.5615234 730.52832,38.5615234 Z M746.250977,38 L746.250977,11.2177734 L749.668945,11.2177734 L750.181641,15.0507812 C751.239589,13.7324153 752.562004,12.6704142 754.148926,11.8647461 C755.735848,11.059078 757.448884,10.65625 759.288086,10.65625 C762.380549,10.65625 764.66731,11.5229406 766.148438,13.2563477 C767.629565,14.9897548 768.370117,17.6549299 768.370117,21.2519531 L768.370117,38 L764.292969,38 C764.292969,27.2577588 764.284831,21.5042356 764.268555,20.7392578 C764.20345,18.4606006 763.743657,16.792323 762.88916,15.734375 C762.034664,14.676427 760.606455,14.1474609 758.604492,14.1474609 C756.504872,14.1474609 754.755215,14.6520132 753.355469,15.6611328 C751.955722,16.6702524 751.044273,17.9804607 750.621094,19.5917969 C750.458333,20.6822971 750.376953,21.9355398 750.376953,23.3515625 L750.376953,38 L746.250977,38 Z M783.702148,38.4882812 C781.065417,38.4882812 779.19369,37.845384 778.086914,36.5595703 C776.980138,35.2737566 776.394206,33.198582 776.329102,30.3339844 L776.329102,14.2451172 L772.349609,14.2451172 L772.520508,11.5595703 L776.304688,11.2177734 L777.696289,5.08984375 L780.381836,4.9921875 L780.381836,11.2177734 L787.828125,11.2177734 L787.828125,14.2451172 L780.381836,14.2451172 L780.381836,29.6015625 C780.381836,31.6360779 780.691078,33.0683552 781.30957,33.8984375 C781.928063,34.7285198 782.985995,35.1435547 784.483398,35.1435547 C785.02051,35.1435547 786.184236,35.0133477 787.974609,34.7529297 L788.145508,37.9755859 C786.208649,38.3173845 784.727544,38.4882812 783.702148,38.4882812 Z" id="element" fill="#FFFFFF"></path>
                <path d="M88.7724609,488.876953 L22.3486328,457.051758 L22.3486328,450.326172 L88.9111328,416.143555 L88.9111328,427.098633 L35.1757812,453.376953 L88.7724609,477.921875 L88.7724609,488.876953 Z M106.591797,532.003906 L106.591797,422.938477 L116.78418,422.938477 L117.893555,433.269531 C124.549838,425.318971 132.546503,421.34375 141.883789,421.34375 C148.817417,421.34375 154.687801,423.077131 159.495117,426.543945 C164.302433,430.01076 167.850086,434.702444 170.138184,440.619141 C172.426281,446.535837 173.570312,453.44625 173.570312,461.350586 C173.570312,468.931353 172.322278,475.668428 169.826172,481.562012 C167.330066,487.455596 163.666854,492.101057 158.836426,495.498535 C154.005998,498.896013 148.355176,500.594727 141.883789,500.594727 C136.984025,500.594727 132.384787,499.496919 128.085938,497.30127 C123.787088,495.105621 120.343437,492.205096 117.754883,488.599609 C118.032228,493.591822 118.170898,498.445289 118.170898,503.160156 L118.170898,531.241211 L106.591797,532.003906 Z M140.289062,490.818359 C143.802101,490.818359 146.945299,490.021004 149.71875,488.42627 C152.492201,486.831535 154.734041,484.647475 156.444336,481.874023 C158.154631,479.100572 159.448889,475.945818 160.327148,472.409668 C161.205408,468.873517 161.644531,465.048523 161.644531,460.93457 C161.644531,452.244423 159.818703,445.114448 156.166992,439.544434 C152.515281,433.974419 147.176467,431.189453 140.150391,431.189453 C125.451098,431.189453 118.101562,440.688382 118.101562,459.686523 C118.101562,469.994518 119.823388,477.760065 123.26709,482.983398 C126.710792,488.206732 132.384726,490.818359 140.289062,490.818359 Z M187.922852,477.436523 L241.588867,453.376953 L188.061523,426.613281 L188.061523,415.796875 L254.485352,450.395508 L254.485352,457.121094 L187.922852,488.460938 L187.922852,477.436523 Z M1151.27637,488.876953 L1084.85254,457.051758 L1084.85254,450.326172 L1151.41504,416.143555 L1151.41504,427.098633 L1097.67969,453.376953 L1151.27637,477.921875 L1151.27637,488.876953 Z M1172.63184,514.115234 L1162.64746,514.115234 L1209.51855,397.353516 L1219.6416,397.353516 L1172.63184,514.115234 Z M1235.10352,532.003906 L1235.10352,422.938477 L1245.2959,422.938477 L1246.40527,433.269531 C1253.06156,425.318971 1261.05822,421.34375 1270.39551,421.34375 C1277.32914,421.34375 1283.19952,423.077131 1288.00684,426.543945 C1292.81415,430.01076 1296.3618,434.702444 1298.6499,440.619141 C1300.938,446.535837 1302.08203,453.44625 1302.08203,461.350586 C1302.08203,468.931353 1300.834,475.668428 1298.33789,481.562012 C1295.84178,487.455596 1292.17857,492.101057 1287.34814,495.498535 C1282.51772,498.896013 1276.86689,500.594727 1270.39551,500.594727 C1265.49574,500.594727 1260.89651,499.496919 1256.59766,497.30127 C1252.29881,495.105621 1248.85516,492.205096 1246.2666,488.599609 C1246.54395,493.591822 1246.68262,498.445289 1246.68262,503.160156 L1246.68262,531.241211 L1235.10352,532.003906 Z M1268.80078,490.818359 C1272.31382,490.818359 1275.45702,490.021004 1278.23047,488.42627 C1281.00392,486.831535 1283.24576,484.647475 1284.95605,481.874023 C1286.66635,479.100572 1287.96061,475.945818 1288.83887,472.409668 C1289.71713,468.873517 1290.15625,465.048523 1290.15625,460.93457 C1290.15625,452.244423 1288.33042,445.114448 1284.67871,439.544434 C1281.027,433.974419 1275.68819,431.189453 1268.66211,431.189453 C1253.96282,431.189453 1246.61328,440.688382 1246.61328,459.686523 C1246.61328,469.994518 1248.33511,477.760065 1251.77881,482.983398 C1255.22251,488.206732 1260.89644,490.818359 1268.80078,490.818359 Z M1316.43457,477.436523 L1370.10059,453.376953 L1316.57324,426.613281 L1316.57324,415.796875 L1382.99707,450.395508 L1382.99707,457.121094 L1316.43457,488.460938 L1316.43457,477.436523 Z" id="&lt;p&gt;Hello-World!&lt;/p&gt;" fill="#FA4359"></path>
                <path d="M597.333984,265.561523 C593.395163,265.561523 590.314953,264.283867 588.093262,261.728516 C585.871571,259.173164 584.760742,255.828471 584.760742,251.694336 C584.777018,247.527648 585.912261,244.146335 588.166504,241.550293 C590.420747,238.954251 593.509095,237.65625 597.431641,237.65625 C598.815111,237.65625 600.153802,237.827147 601.447754,238.168945 C602.741706,238.510744 603.763017,238.958331 604.511719,239.511719 L603.388672,242.685547 C601.484365,241.660151 599.474294,241.147461 597.358398,241.147461 C594.770495,241.147461 592.723803,242.091462 591.218262,243.979492 C589.71272,245.867522 588.959961,248.447249 588.959961,251.71875 C588.959961,254.90887 589.704582,257.4357 591.193848,259.299316 C592.683113,261.162932 594.746081,262.094727 597.382812,262.094727 C599.482432,262.094727 601.630848,261.525071 603.828125,260.385742 L604.34082,263.632812 C602.566723,264.918626 600.231134,265.561523 597.333984,265.561523 Z M612.617188,251.669922 C612.617188,254.843766 613.321119,257.386872 614.729004,259.299316 C616.136889,261.211761 618.191718,262.167969 620.893555,262.167969 C623.562839,262.167969 625.576979,261.21583 626.936035,259.311523 C628.295091,257.407217 628.974609,254.843766 628.974609,251.621094 C628.974609,248.349593 628.303229,245.773935 626.960449,243.894043 C625.617669,242.014151 623.570977,241.074219 620.820312,241.074219 C618.151028,241.074219 616.116543,242.034496 614.716797,243.955078 C613.31705,245.875661 612.617188,248.44725 612.617188,251.669922 Z M633.198242,251.59668 C633.198242,255.747091 632.091482,259.112129 629.87793,261.691895 C627.664377,264.27166 624.604512,265.561523 620.698242,265.561523 C616.938458,265.561523 613.947765,264.259453 611.726074,261.655273 C609.504383,259.051094 608.393555,255.706401 608.393555,251.621094 C608.393555,247.454406 609.508452,244.085299 611.738281,241.513672 C613.96811,238.942044 617.027975,237.65625 620.917969,237.65625 C624.742858,237.65625 627.745757,238.946113 629.926758,241.525879 C632.107758,244.105644 633.198242,247.462544 633.198242,251.59668 Z M638.959961,265 L638.959961,238.217773 L642.37793,238.217773 L642.890625,242.050781 C643.948573,240.732415 645.270988,239.670414 646.85791,238.864746 C648.444832,238.059078 650.157868,237.65625 651.99707,237.65625 C655.089534,237.65625 657.376295,238.522941 658.857422,240.256348 C660.338549,241.989755 661.079102,244.65493 661.079102,248.251953 L661.079102,265 L657.001953,265 C657.001953,254.257759 656.993815,248.504236 656.977539,247.739258 C656.912435,245.460601 656.452641,243.792323 655.598145,242.734375 C654.743648,241.676427 653.31544,241.147461 651.313477,241.147461 C649.213857,241.147461 647.4642,241.652013 646.064453,242.661133 C644.664707,243.670252 643.753257,244.980461 643.330078,246.591797 C643.167317,247.682297 643.085938,248.93554 643.085938,250.351562 L643.085938,265 L638.959961,265 Z M676.411133,265.488281 C673.774401,265.488281 671.902675,264.845384 670.795898,263.55957 C669.689122,262.273757 669.10319,260.198582 669.038086,257.333984 L669.038086,241.245117 L665.058594,241.245117 L665.229492,238.55957 L669.013672,238.217773 L670.405273,232.089844 L673.09082,231.992188 L673.09082,238.217773 L680.537109,238.217773 L680.537109,241.245117 L673.09082,241.245117 L673.09082,256.601562 C673.09082,258.636078 673.400062,260.068355 674.018555,260.898438 C674.637047,261.72852 675.694979,262.143555 677.192383,262.143555 C677.729495,262.143555 678.89322,262.013348 680.683594,261.75293 L680.854492,264.975586 C678.917634,265.317385 677.436529,265.488281 676.411133,265.488281 Z M695.722656,241.025391 C693.639312,241.025391 691.938483,241.761874 690.620117,243.234863 C689.301751,244.707852 688.528647,246.721992 688.300781,249.277344 L702.436523,249.277344 C702.436523,246.624336 701.838385,244.585782 700.64209,243.161621 C699.445795,241.73746 697.806,241.025391 695.722656,241.025391 Z M696.52832,265.561523 C692.638327,265.561523 689.574393,264.324557 687.336426,261.850586 C685.098459,259.376615 683.979492,255.991232 683.979492,251.694336 C683.979492,247.543925 685.061838,244.178887 687.226562,241.599121 C689.391287,239.019356 692.239566,237.705078 695.771484,237.65625 C699.091813,237.65625 701.724437,238.791493 703.669434,241.062012 C705.61443,243.332531 706.586914,246.363913 706.586914,250.15625 C706.586914,250.351563 706.582845,250.709633 706.574707,251.230469 C706.566569,251.751305 706.5625,252.12565 706.5625,252.353516 L688.178711,252.353516 C688.227539,255.397151 689.01285,257.76936 690.534668,259.470215 C692.056485,261.17107 694.103177,262.021484 696.674805,262.021484 C699.50685,262.021484 702.346991,261.272794 705.195312,259.775391 L705.830078,263.071289 C703.111966,264.731454 700.011411,265.561523 696.52832,265.561523 Z M712.250977,265 L712.250977,238.217773 L715.668945,238.217773 L716.181641,242.050781 C717.239589,240.732415 718.562004,239.670414 720.148926,238.864746 C721.735848,238.059078 723.448884,237.65625 725.288086,237.65625 C728.380549,237.65625 730.66731,238.522941 732.148438,240.256348 C733.629565,241.989755 734.370117,244.65493 734.370117,248.251953 L734.370117,265 L730.292969,265 C730.292969,254.257759 730.284831,248.504236 730.268555,247.739258 C730.20345,245.460601 729.743657,243.792323 728.88916,242.734375 C728.034664,241.676427 726.606455,241.147461 724.604492,241.147461 C722.504872,241.147461 720.755215,241.652013 719.355469,242.661133 C717.955722,243.670252 717.044273,244.980461 716.621094,246.591797 C716.458333,247.682297 716.376953,248.93554 716.376953,250.351562 L716.376953,265 L712.250977,265 Z M749.702148,265.488281 C747.065417,265.488281 745.19369,264.845384 744.086914,263.55957 C742.980138,262.273757 742.394206,260.198582 742.329102,257.333984 L742.329102,241.245117 L738.349609,241.245117 L738.520508,238.55957 L742.304688,238.217773 L743.696289,232.089844 L746.381836,231.992188 L746.381836,238.217773 L753.828125,238.217773 L753.828125,241.245117 L746.381836,241.245117 L746.381836,256.601562 C746.381836,258.636078 746.691078,260.068355 747.30957,260.898438 C747.928063,261.72852 748.985995,262.143555 750.483398,262.143555 C751.02051,262.143555 752.184236,262.013348 753.974609,261.75293 L754.145508,264.975586 C752.208649,265.317385 750.727544,265.488281 749.702148,265.488281 Z" id="content" fill="#FFFFFF"></path>
                <path d="M4.91308594,716.669922 C4.91308594,719.843766 5.6170177,722.386872 7.02490234,724.299316 C8.43278699,726.211761 10.4876167,727.167969 13.1894531,727.167969 C15.8587373,727.167969 17.8728773,726.21583 19.2319336,724.311523 C20.5909899,722.407217 21.2705078,719.843766 21.2705078,716.621094 C21.2705078,713.349593 20.5991278,710.773935 19.2563477,708.894043 C17.9135675,707.014151 15.8668757,706.074219 13.1162109,706.074219 C10.4469268,706.074219 8.41244189,707.034496 7.01269531,708.955078 C5.61294873,710.875661 4.91308594,713.44725 4.91308594,716.669922 Z M25.4941406,716.59668 C25.4941406,720.747091 24.3873809,724.112129 22.1738281,726.691895 C19.9602754,729.27166 16.9004102,730.561523 12.9941406,730.561523 C9.2343562,730.561523 6.24366345,729.259453 4.02197266,726.655273 C1.80028186,724.051094 0.689453125,720.706401 0.689453125,716.621094 C0.689453125,712.454406 1.80435083,709.085299 4.03417969,706.513672 C6.26400854,703.942044 9.32387378,702.65625 13.2138672,702.65625 C17.0387561,702.65625 20.0416558,703.946113 22.2226562,706.525879 C24.4036567,709.105644 25.4941406,712.462544 25.4941406,716.59668 Z M31.2558594,741.621094 L31.2558594,703.217773 L34.8447266,703.217773 L35.2353516,706.855469 C37.5791133,704.055976 40.3948403,702.65625 43.6826172,702.65625 C46.1240356,702.65625 48.1910723,703.266595 49.8837891,704.487305 C51.5765059,705.708014 52.8256796,707.360016 53.6313477,709.443359 C54.4370157,711.526703 54.8398438,713.959947 54.8398438,716.743164 C54.8398438,719.412448 54.400395,721.784658 53.5214844,723.859863 C52.6425737,725.935069 51.3527103,727.570795 49.6518555,728.76709 C47.9510006,729.963385 45.9612744,730.561523 43.6826172,730.561523 C41.9573481,730.561523 40.3378982,730.174971 38.8242188,729.401855 C37.3105393,728.62874 36.0979863,727.607428 35.1865234,726.337891 C35.2841802,728.095712 35.3330078,729.804679 35.3330078,731.464844 L35.3330078,741.352539 L31.2558594,741.621094 Z M43.1210938,727.119141 C44.3580791,727.119141 45.4648389,726.838382 46.4414062,726.276855 C47.4179736,725.715329 48.2073538,724.946294 48.8095703,723.969727 C49.4117869,722.993159 49.8675115,721.88233 50.1767578,720.637207 C50.4860042,719.392084 50.640625,718.045255 50.640625,716.59668 C50.640625,713.536769 49.9977278,711.026214 48.7119141,709.064941 C47.4261003,707.103669 45.5462363,706.123047 43.0722656,706.123047 C37.8964585,706.123047 35.3085938,709.46774 35.3085938,716.157227 C35.3085938,719.786802 35.9148702,722.52115 37.1274414,724.360352 C38.3400126,726.199553 40.3378767,727.119141 43.1210938,727.119141 Z M71.0996094,706.025391 C69.0162656,706.025391 67.3154363,706.761874 65.9970703,708.234863 C64.6787043,709.707852 63.9056001,711.721992 63.6777344,714.277344 L77.8134766,714.277344 C77.8134766,711.624336 77.215338,709.585782 76.019043,708.161621 C74.8227479,706.73746 73.1829531,706.025391 71.0996094,706.025391 Z M71.9052734,730.561523 C68.01528,730.561523 64.9513458,729.324557 62.7133789,726.850586 C60.475412,724.376615 59.3564453,720.991232 59.3564453,716.694336 C59.3564453,712.543925 60.4387913,709.178887 62.6035156,706.599121 C64.76824,704.019356 67.6165188,702.705078 71.1484375,702.65625 C74.4687666,702.65625 77.10139,703.791493 79.0463867,706.062012 C80.9913834,708.332531 81.9638672,711.363913 81.9638672,715.15625 C81.9638672,715.351563 81.9597982,715.709633 81.9516602,716.230469 C81.9435221,716.751305 81.9394531,717.12565 81.9394531,717.353516 L63.5556641,717.353516 C63.6044924,720.397151 64.3898036,722.76936 65.9116211,724.470215 C67.4334386,726.17107 69.4801304,727.021484 72.0517578,727.021484 C74.8838032,727.021484 77.7239441,726.272794 80.5722656,724.775391 L81.2070312,728.071289 C78.4889187,729.731454 75.3883638,730.561523 71.9052734,730.561523 Z M87.6279297,730 L87.6279297,703.217773 L91.0458984,703.217773 L91.5585938,707.050781 C92.6165417,705.732415 93.9389569,704.670414 95.5258789,703.864746 C97.1128009,703.059078 98.8258372,702.65625 100.665039,702.65625 C103.757502,702.65625 106.044263,703.522941 107.525391,705.256348 C109.006518,706.989755 109.74707,709.65493 109.74707,713.251953 L109.74707,730 L105.669922,730 C105.669922,719.257759 105.661784,713.504236 105.645508,712.739258 C105.580403,710.460601 105.12061,708.792323 104.266113,707.734375 C103.411617,706.676427 101.983408,706.147461 99.9814453,706.147461 C97.8818254,706.147461 96.1321685,706.652013 94.7324219,707.661133 C93.3326753,708.670252 92.4212261,709.980461 91.9980469,711.591797 C91.8352856,712.682297 91.7539062,713.93554 91.7539062,715.351562 L91.7539062,730 L87.6279297,730 Z M121.34375,703.217773 L121.34375,730 L117.242188,730 L117.242188,703.217773 L121.34375,703.217773 Z M121.34375,693.476562 L121.34375,698.310547 L117.242188,698.310547 L117.242188,693.476562 L121.34375,693.476562 Z M129.009766,730 L129.009766,703.217773 L132.427734,703.217773 L132.94043,707.050781 C133.998378,705.732415 135.320793,704.670414 136.907715,703.864746 C138.494637,703.059078 140.207673,702.65625 142.046875,702.65625 C145.139338,702.65625 147.426099,703.522941 148.907227,705.256348 C150.388354,706.989755 151.128906,709.65493 151.128906,713.251953 L151.128906,730 L147.051758,730 C147.051758,719.257759 147.04362,713.504236 147.027344,712.739258 C146.962239,710.460601 146.502446,708.792323 145.647949,707.734375 C144.793453,706.676427 143.365244,706.147461 141.363281,706.147461 C139.263661,706.147461 137.514004,706.652013 136.114258,707.661133 C134.714511,708.670252 133.803062,709.980461 133.379883,711.591797 C133.217122,712.682297 133.135742,713.93554 133.135742,715.351562 L133.135742,730 L129.009766,730 Z M168.316406,726.508789 C169.699877,726.508789 170.91243,726.264651 171.954102,725.776367 C172.995773,725.288083 173.809567,724.612635 174.395508,723.75 C174.981448,722.887365 175.416828,721.927089 175.70166,720.869141 C175.986492,719.811193 176.128906,718.655605 176.128906,717.402344 L176.128906,715.424805 C176.128906,714.122715 175.982423,712.922369 175.689453,711.82373 C175.396483,710.725092 174.944827,709.740401 174.334473,708.869629 C173.724118,707.998856 172.910324,707.319338 171.893066,706.831055 C170.875809,706.342771 169.691739,706.098633 168.34082,706.098633 C167.217768,706.098633 166.196456,706.310219 165.276855,706.733398 C164.357255,707.156578 163.600426,707.714026 163.006348,708.405762 C162.412269,709.097497 161.907717,709.903153 161.492676,710.822754 C161.077635,711.742355 160.7806,712.674149 160.601562,713.618164 C160.422525,714.562179 160.333008,715.514318 160.333008,716.474609 C160.333008,717.418625 160.430663,718.354488 160.625977,719.282227 C160.82129,720.209966 161.130532,721.113277 161.553711,721.992188 C161.97689,722.871098 162.48958,723.640133 163.091797,724.299316 C163.694013,724.958499 164.446773,725.491534 165.350098,725.898438 C166.253422,726.305341 167.242182,726.508789 168.316406,726.508789 Z M162.041992,742.255859 L161.675781,738.569336 L166.65625,738.569336 C168.03972,738.569336 169.244135,738.471681 170.269531,738.276367 C171.294927,738.081054 172.149411,737.759605 172.833008,737.312012 C173.516605,736.864418 174.069985,736.368004 174.493164,735.822754 C174.916343,735.277504 175.237792,734.569503 175.45752,733.69873 C175.677247,732.827958 175.82373,731.965336 175.896973,731.11084 C175.970215,730.256343 176.006836,729.210618 176.006836,727.973633 L176.006836,725.605469 C175.030269,727.005215 173.899095,728.083492 172.613281,728.840332 C171.327468,729.597172 169.691742,729.975586 167.706055,729.975586 C166.176099,729.975586 164.764167,729.711103 163.470215,729.182129 C162.176263,728.653155 161.085779,727.949223 160.19873,727.070312 C159.311682,726.191402 158.554853,725.174159 157.928223,724.018555 C157.301592,722.86295 156.845867,721.666673 156.561035,720.429688 C156.276203,719.192702 156.133789,717.947597 156.133789,716.694336 C156.133789,714.741201 156.373858,712.934579 156.854004,711.274414 C157.33415,709.61425 158.046219,708.133145 158.990234,706.831055 C159.93425,705.528965 161.175285,704.507653 162.713379,703.76709 C164.251473,703.026526 166.013336,702.65625 167.999023,702.65625 C169.756845,702.65625 171.290846,702.993974 172.601074,703.669434 C173.911302,704.344893 175.087234,705.38248 176.128906,706.782227 L176.128906,703.217773 L180.108398,703.217773 L180.108398,728.071289 C180.108398,729.210618 180.079916,730.207515 180.022949,731.062012 C179.965983,731.916508 179.827638,732.864578 179.60791,733.90625 C179.388182,734.947922 179.091148,735.843095 178.716797,736.591797 C178.342446,737.340499 177.817549,738.093258 177.14209,738.850098 C176.466631,739.606937 175.660975,740.217283 174.725098,740.681152 C173.789221,741.145022 172.629564,741.523436 171.246094,741.816406 C169.862623,742.109376 168.300139,742.255859 166.558594,742.255859 L162.041992,742.255859 Z M207.916016,730.488281 C205.279284,730.488281 203.407558,729.845384 202.300781,728.55957 C201.194005,727.273757 200.608073,725.198582 200.542969,722.333984 L200.542969,706.245117 L196.563477,706.245117 L196.734375,703.55957 L200.518555,703.217773 L201.910156,697.089844 L204.595703,696.992188 L204.595703,703.217773 L212.041992,703.217773 L212.041992,706.245117 L204.595703,706.245117 L204.595703,721.601562 C204.595703,723.636078 204.904945,725.068355 205.523438,725.898438 C206.14193,726.72852 207.199862,727.143555 208.697266,727.143555 C209.234378,727.143555 210.398103,727.013348 212.188477,726.75293 L212.359375,729.975586 C210.422516,730.317385 208.941411,730.488281 207.916016,730.488281 Z M224.444336,727.265625 C226.381195,727.265625 228.086093,726.73259 229.559082,725.666504 C231.032071,724.600418 231.980141,723.164072 232.40332,721.357422 L232.40332,716.84082 C232.32194,716.84082 231.829594,716.88151 230.92627,716.962891 C230.022945,717.044271 229.432944,717.093099 229.15625,717.109375 C225.624331,717.418621 223.162605,717.996415 221.770996,718.842773 C220.379388,719.689132 219.683594,721.048168 219.683594,722.919922 C219.683594,724.352221 220.106767,725.434567 220.953125,726.166992 C221.799483,726.899418 222.963209,727.265625 224.444336,727.265625 Z M233.306641,730 C233.062499,728.958328 232.826499,727.835292 232.598633,726.630859 C231.117506,728.111987 229.725918,729.137367 228.423828,729.707031 C227.121738,730.276696 225.591806,730.561523 223.833984,730.561523 C221.327461,730.561523 219.313321,729.906419 217.791504,728.596191 C216.269686,727.285964 215.508789,725.402031 215.508789,722.944336 C215.508789,720.209947 216.546376,718.1836 218.621582,716.865234 C220.696788,715.546868 223.68748,714.724937 227.59375,714.399414 C228.130862,714.350586 228.940587,714.281413 230.022949,714.191895 C231.105311,714.102376 231.915036,714.033203 232.452148,713.984375 L232.452148,711.616211 C232.452148,709.728181 232.0127,708.328455 231.133789,707.416992 C230.254878,706.505529 228.871429,706.049805 226.983398,706.049805 C224.346667,706.049805 221.68556,706.70084 219,708.00293 C218.918619,707.807616 218.707033,707.242029 218.365234,706.306152 C218.023436,705.370275 217.844401,704.886068 217.828125,704.853516 C219.016282,704.186195 220.428214,703.65316 222.063965,703.254395 C223.699715,702.85563 225.363924,702.65625 227.056641,702.65625 C230.393246,702.65625 232.798007,703.384596 234.270996,704.841309 C235.743985,706.298022 236.480469,708.776024 236.480469,712.275391 L236.480469,730 L233.306641,730 Z M253.912109,726.508789 C255.29558,726.508789 256.508133,726.264651 257.549805,725.776367 C258.591477,725.288083 259.405271,724.612635 259.991211,723.75 C260.577151,722.887365 261.012531,721.927089 261.297363,720.869141 C261.582195,719.811193 261.724609,718.655605 261.724609,717.402344 L261.724609,715.424805 C261.724609,714.122715 261.578126,712.922369 261.285156,711.82373 C260.992186,710.725092 260.54053,709.740401 259.930176,708.869629 C259.319821,707.998856 258.506027,707.319338 257.48877,706.831055 C256.471512,706.342771 255.287442,706.098633 253.936523,706.098633 C252.813471,706.098633 251.79216,706.310219 250.872559,706.733398 C249.952958,707.156578 249.196129,707.714026 248.602051,708.405762 C248.007972,709.097497 247.50342,709.903153 247.088379,710.822754 C246.673338,711.742355 246.376303,712.674149 246.197266,713.618164 C246.018228,714.562179 245.928711,715.514318 245.928711,716.474609 C245.928711,717.418625 246.026366,718.354488 246.22168,719.282227 C246.416993,720.209966 246.726235,721.113277 247.149414,721.992188 C247.572593,722.871098 248.085283,723.640133 248.6875,724.299316 C249.289717,724.958499 250.042476,725.491534 250.945801,725.898438 C251.849126,726.305341 252.837885,726.508789 253.912109,726.508789 Z M247.637695,742.255859 L247.271484,738.569336 L252.251953,738.569336 C253.635424,738.569336 254.839839,738.471681 255.865234,738.276367 C256.89063,738.081054 257.745114,737.759605 258.428711,737.312012 C259.112308,736.864418 259.665688,736.368004 260.088867,735.822754 C260.512046,735.277504 260.833495,734.569503 261.053223,733.69873 C261.27295,732.827958 261.419433,731.965336 261.492676,731.11084 C261.565918,730.256343 261.602539,729.210618 261.602539,727.973633 L261.602539,725.605469 C260.625972,727.005215 259.494798,728.083492 258.208984,728.840332 C256.923171,729.597172 255.287445,729.975586 253.301758,729.975586 C251.771802,729.975586 250.35987,729.711103 249.065918,729.182129 C247.771966,728.653155 246.681482,727.949223 245.794434,727.070312 C244.907385,726.191402 244.150557,725.174159 243.523926,724.018555 C242.897295,722.86295 242.44157,721.666673 242.156738,720.429688 C241.871906,719.192702 241.729492,717.947597 241.729492,716.694336 C241.729492,714.741201 241.969561,712.934579 242.449707,711.274414 C242.929853,709.61425 243.641922,708.133145 244.585938,706.831055 C245.529953,705.528965 246.770988,704.507653 248.309082,703.76709 C249.847176,703.026526 251.60904,702.65625 253.594727,702.65625 C255.352548,702.65625 256.886549,702.993974 258.196777,703.669434 C259.507005,704.344893 260.682937,705.38248 261.724609,706.782227 L261.724609,703.217773 L265.704102,703.217773 L265.704102,728.071289 C265.704102,729.210618 265.675619,730.207515 265.618652,731.062012 C265.561686,731.916508 265.423341,732.864578 265.203613,733.90625 C264.983886,734.947922 264.686851,735.843095 264.3125,736.591797 C263.938149,737.340499 263.413252,738.093258 262.737793,738.850098 C262.062334,739.606937 261.256678,740.217283 260.320801,740.681152 C259.384924,741.145022 258.225267,741.523436 256.841797,741.816406 C255.458326,742.109376 253.895842,742.255859 252.154297,742.255859 L247.637695,742.255859 Z" id="opening-tag" fill="#FFFFFF"></path>
                <path d="M1124.75,730.561523 C1120.81118,730.561523 1117.73097,729.283867 1115.50928,726.728516 C1113.28759,724.173164 1112.17676,720.828471 1112.17676,716.694336 C1112.19303,712.527648 1113.32828,709.146335 1115.58252,706.550293 C1117.83676,703.954251 1120.92511,702.65625 1124.84766,702.65625 C1126.23113,702.65625 1127.56982,702.827147 1128.86377,703.168945 C1130.15772,703.510744 1131.17903,703.958331 1131.92773,704.511719 L1130.80469,707.685547 C1128.90038,706.660151 1126.89031,706.147461 1124.77441,706.147461 C1122.18651,706.147461 1120.13982,707.091462 1118.63428,708.979492 C1117.12874,710.867522 1116.37598,713.447249 1116.37598,716.71875 C1116.37598,719.90887 1117.1206,722.4357 1118.60986,724.299316 C1120.09913,726.162932 1122.1621,727.094727 1124.79883,727.094727 C1126.89845,727.094727 1129.04686,726.525071 1131.24414,725.385742 L1131.75684,728.632812 C1129.98274,729.918626 1127.64715,730.561523 1124.75,730.561523 Z M1144.25684,730.488281 C1141.65266,730.488281 1139.80941,729.788418 1138.72705,728.388672 C1137.64469,726.988925 1137.10352,724.555681 1137.10352,721.088867 L1137.10352,692.817383 L1141.15625,692.573242 L1141.15625,719.477539 C1141.15625,720.584315 1141.16846,721.471351 1141.19287,722.138672 C1141.21729,722.805993 1141.27832,723.461097 1141.37598,724.104004 C1141.47363,724.746911 1141.60384,725.231118 1141.7666,725.556641 C1141.92936,725.882163 1142.16536,726.179198 1142.47461,726.447754 C1142.78386,726.71631 1143.15413,726.895345 1143.58545,726.984863 C1144.01677,727.074382 1144.5498,727.119141 1145.18457,727.119141 C1145.70541,727.119141 1146.73079,727.021485 1148.26074,726.826172 L1148.48047,730.073242 C1146.80403,730.349936 1145.39616,730.488281 1144.25684,730.488281 Z M1153.9248,716.669922 C1153.9248,719.843766 1154.62874,722.386872 1156.03662,724.299316 C1157.44451,726.211761 1159.49934,727.167969 1162.20117,727.167969 C1164.87046,727.167969 1166.8846,726.21583 1168.24365,724.311523 C1169.60271,722.407217 1170.28223,719.843766 1170.28223,716.621094 C1170.28223,713.349593 1169.61085,710.773935 1168.26807,708.894043 C1166.92529,707.014151 1164.87859,706.074219 1162.12793,706.074219 C1159.45865,706.074219 1157.42416,707.034496 1156.02441,708.955078 C1154.62467,710.875661 1153.9248,713.44725 1153.9248,716.669922 Z M1174.50586,716.59668 C1174.50586,720.747091 1173.3991,724.112129 1171.18555,726.691895 C1168.97199,729.27166 1165.91213,730.561523 1162.00586,730.561523 C1158.24607,730.561523 1155.25538,729.259453 1153.03369,726.655273 C1150.812,724.051094 1149.70117,720.706401 1149.70117,716.621094 C1149.70117,712.454406 1150.81607,709.085299 1153.0459,706.513672 C1155.27573,703.942044 1158.33559,702.65625 1162.22559,702.65625 C1166.05047,702.65625 1169.05337,703.946113 1171.23438,706.525879 C1173.41538,709.105644 1174.50586,712.462544 1174.50586,716.59668 Z M1188.25098,730.561523 C1186.42805,730.561523 1184.74757,730.366213 1183.20947,729.975586 C1181.67138,729.584959 1180.42221,729.080407 1179.46191,728.461914 L1179.97461,725.019531 C1182.69272,726.468106 1185.36197,727.192383 1187.98242,727.192383 C1191.9538,727.192383 1193.99642,725.792657 1194.11035,722.993164 C1194.11035,721.805007 1193.68718,720.869144 1192.84082,720.185547 C1191.99446,719.50195 1190.33432,718.736983 1187.86035,717.890625 L1185.83398,717.182617 C1183.49022,716.401363 1181.81788,715.432948 1180.81689,714.277344 C1179.81591,713.121739 1179.30729,711.681324 1179.29102,709.956055 C1179.29102,707.856435 1180.13329,706.114916 1181.81787,704.731445 C1183.50245,703.347975 1185.80956,702.65625 1188.73926,702.65625 C1191.76662,702.65625 1194.52538,703.242182 1197.01562,704.414062 L1195.81934,707.539062 C1193.29654,706.497391 1190.93653,705.976562 1188.73926,705.976562 C1187.03026,705.976562 1185.69157,706.314287 1184.72314,706.989746 C1183.75472,707.665205 1183.27051,708.613275 1183.27051,709.833984 C1183.27051,710.875656 1183.62044,711.673174 1184.32031,712.226562 C1185.02019,712.779951 1186.41991,713.41471 1188.51953,714.130859 C1189.05664,714.326173 1189.73209,714.554035 1190.5459,714.814453 C1193.24773,715.693364 1195.16015,716.730951 1196.2832,717.927246 C1197.40626,719.123541 1197.96777,720.738922 1197.96777,722.773438 C1197.93522,725.247408 1197.04819,727.163893 1195.30664,728.522949 C1193.5651,729.882005 1191.21323,730.561523 1188.25098,730.561523 Z M1208.34375,703.217773 L1208.34375,730 L1204.24219,730 L1204.24219,703.217773 L1208.34375,703.217773 Z M1208.34375,693.476562 L1208.34375,698.310547 L1204.24219,698.310547 L1204.24219,693.476562 L1208.34375,693.476562 Z M1216.00977,730 L1216.00977,703.217773 L1219.42773,703.217773 L1219.94043,707.050781 C1220.99838,705.732415 1222.32079,704.670414 1223.90771,703.864746 C1225.49464,703.059078 1227.20767,702.65625 1229.04688,702.65625 C1232.13934,702.65625 1234.4261,703.522941 1235.90723,705.256348 C1237.38835,706.989755 1238.12891,709.65493 1238.12891,713.251953 L1238.12891,730 L1234.05176,730 C1234.05176,719.257759 1234.04362,713.504236 1234.02734,712.739258 C1233.96224,710.460601 1233.50245,708.792323 1232.64795,707.734375 C1231.79345,706.676427 1230.36524,706.147461 1228.36328,706.147461 C1226.26366,706.147461 1224.514,706.652013 1223.11426,707.661133 C1221.71451,708.670252 1220.80306,709.980461 1220.37988,711.591797 C1220.21712,712.682297 1220.13574,713.93554 1220.13574,715.351562 L1220.13574,730 L1216.00977,730 Z M1255.31641,726.508789 C1256.69988,726.508789 1257.91243,726.264651 1258.9541,725.776367 C1259.99577,725.288083 1260.80957,724.612635 1261.39551,723.75 C1261.98145,722.887365 1262.41683,721.927089 1262.70166,720.869141 C1262.98649,719.811193 1263.12891,718.655605 1263.12891,717.402344 L1263.12891,715.424805 C1263.12891,714.122715 1262.98242,712.922369 1262.68945,711.82373 C1262.39648,710.725092 1261.94483,709.740401 1261.33447,708.869629 C1260.72412,707.998856 1259.91032,707.319338 1258.89307,706.831055 C1257.87581,706.342771 1256.69174,706.098633 1255.34082,706.098633 C1254.21777,706.098633 1253.19646,706.310219 1252.27686,706.733398 C1251.35725,707.156578 1250.60043,707.714026 1250.00635,708.405762 C1249.41227,709.097497 1248.90772,709.903153 1248.49268,710.822754 C1248.07763,711.742355 1247.7806,712.674149 1247.60156,713.618164 C1247.42253,714.562179 1247.33301,715.514318 1247.33301,716.474609 C1247.33301,717.418625 1247.43066,718.354488 1247.62598,719.282227 C1247.82129,720.209966 1248.13053,721.113277 1248.55371,721.992188 C1248.97689,722.871098 1249.48958,723.640133 1250.0918,724.299316 C1250.69401,724.958499 1251.44677,725.491534 1252.3501,725.898438 C1253.25342,726.305341 1254.24218,726.508789 1255.31641,726.508789 Z M1249.04199,742.255859 L1248.67578,738.569336 L1253.65625,738.569336 C1255.03972,738.569336 1256.24414,738.471681 1257.26953,738.276367 C1258.29493,738.081054 1259.14941,737.759605 1259.83301,737.312012 C1260.5166,736.864418 1261.06998,736.368004 1261.49316,735.822754 C1261.91634,735.277504 1262.23779,734.569503 1262.45752,733.69873 C1262.67725,732.827958 1262.82373,731.965336 1262.89697,731.11084 C1262.97022,730.256343 1263.00684,729.210618 1263.00684,727.973633 L1263.00684,725.605469 C1262.03027,727.005215 1260.89909,728.083492 1259.61328,728.840332 C1258.32747,729.597172 1256.69174,729.975586 1254.70605,729.975586 C1253.1761,729.975586 1251.76417,729.711103 1250.47021,729.182129 C1249.17626,728.653155 1248.08578,727.949223 1247.19873,727.070312 C1246.31168,726.191402 1245.55485,725.174159 1244.92822,724.018555 C1244.30159,722.86295 1243.84587,721.666673 1243.56104,720.429688 C1243.2762,719.192702 1243.13379,717.947597 1243.13379,716.694336 C1243.13379,714.741201 1243.37386,712.934579 1243.854,711.274414 C1244.33415,709.61425 1245.04622,708.133145 1245.99023,706.831055 C1246.93425,705.528965 1248.17529,704.507653 1249.71338,703.76709 C1251.25147,703.026526 1253.01334,702.65625 1254.99902,702.65625 C1256.75684,702.65625 1258.29085,702.993974 1259.60107,703.669434 C1260.9113,704.344893 1262.08723,705.38248 1263.12891,706.782227 L1263.12891,703.217773 L1267.1084,703.217773 L1267.1084,728.071289 C1267.1084,729.210618 1267.07992,730.207515 1267.02295,731.062012 C1266.96598,731.916508 1266.82764,732.864578 1266.60791,733.90625 C1266.38818,734.947922 1266.09115,735.843095 1265.7168,736.591797 C1265.34245,737.340499 1264.81755,738.093258 1264.14209,738.850098 C1263.46663,739.606937 1262.66097,740.217283 1261.7251,740.681152 C1260.78922,741.145022 1259.62956,741.523436 1258.24609,741.816406 C1256.86262,742.109376 1255.30014,742.255859 1253.55859,742.255859 L1249.04199,742.255859 Z M1294.91602,730.488281 C1292.27928,730.488281 1290.40756,729.845384 1289.30078,728.55957 C1288.194,727.273757 1287.60807,725.198582 1287.54297,722.333984 L1287.54297,706.245117 L1283.56348,706.245117 L1283.73438,703.55957 L1287.51855,703.217773 L1288.91016,697.089844 L1291.5957,696.992188 L1291.5957,703.217773 L1299.04199,703.217773 L1299.04199,706.245117 L1291.5957,706.245117 L1291.5957,721.601562 C1291.5957,723.636078 1291.90494,725.068355 1292.52344,725.898438 C1293.14193,726.72852 1294.19986,727.143555 1295.69727,727.143555 C1296.23438,727.143555 1297.3981,727.013348 1299.18848,726.75293 L1299.35938,729.975586 C1297.42252,730.317385 1295.94141,730.488281 1294.91602,730.488281 Z M1311.44434,727.265625 C1313.38119,727.265625 1315.08609,726.73259 1316.55908,725.666504 C1318.03207,724.600418 1318.98014,723.164072 1319.40332,721.357422 L1319.40332,716.84082 C1319.32194,716.84082 1318.82959,716.88151 1317.92627,716.962891 C1317.02294,717.044271 1316.43294,717.093099 1316.15625,717.109375 C1312.62433,717.418621 1310.1626,717.996415 1308.771,718.842773 C1307.37939,719.689132 1306.68359,721.048168 1306.68359,722.919922 C1306.68359,724.352221 1307.10677,725.434567 1307.95312,726.166992 C1308.79948,726.899418 1309.96321,727.265625 1311.44434,727.265625 Z M1320.30664,730 C1320.0625,728.958328 1319.8265,727.835292 1319.59863,726.630859 C1318.11751,728.111987 1316.72592,729.137367 1315.42383,729.707031 C1314.12174,730.276696 1312.59181,730.561523 1310.83398,730.561523 C1308.32746,730.561523 1306.31332,729.906419 1304.7915,728.596191 C1303.26969,727.285964 1302.50879,725.402031 1302.50879,722.944336 C1302.50879,720.209947 1303.54638,718.1836 1305.62158,716.865234 C1307.69679,715.546868 1310.68748,714.724937 1314.59375,714.399414 C1315.13086,714.350586 1315.94059,714.281413 1317.02295,714.191895 C1318.10531,714.102376 1318.91504,714.033203 1319.45215,713.984375 L1319.45215,711.616211 C1319.45215,709.728181 1319.0127,708.328455 1318.13379,707.416992 C1317.25488,706.505529 1315.87143,706.049805 1313.9834,706.049805 C1311.34667,706.049805 1308.68556,706.70084 1306,708.00293 C1305.91862,707.807616 1305.70703,707.242029 1305.36523,706.306152 C1305.02344,705.370275 1304.8444,704.886068 1304.82812,704.853516 C1306.01628,704.186195 1307.42821,703.65316 1309.06396,703.254395 C1310.69972,702.85563 1312.36392,702.65625 1314.05664,702.65625 C1317.39325,702.65625 1319.79801,703.384596 1321.271,704.841309 C1322.74399,706.298022 1323.48047,708.776024 1323.48047,712.275391 L1323.48047,730 L1320.30664,730 Z M1340.91211,726.508789 C1342.29558,726.508789 1343.50813,726.264651 1344.5498,725.776367 C1345.59148,725.288083 1346.40527,724.612635 1346.99121,723.75 C1347.57715,722.887365 1348.01253,721.927089 1348.29736,720.869141 C1348.5822,719.811193 1348.72461,718.655605 1348.72461,717.402344 L1348.72461,715.424805 C1348.72461,714.122715 1348.57813,712.922369 1348.28516,711.82373 C1347.99219,710.725092 1347.54053,709.740401 1346.93018,708.869629 C1346.31982,707.998856 1345.50603,707.319338 1344.48877,706.831055 C1343.47151,706.342771 1342.28744,706.098633 1340.93652,706.098633 C1339.81347,706.098633 1338.79216,706.310219 1337.87256,706.733398 C1336.95296,707.156578 1336.19613,707.714026 1335.60205,708.405762 C1335.00797,709.097497 1334.50342,709.903153 1334.08838,710.822754 C1333.67334,711.742355 1333.3763,712.674149 1333.19727,713.618164 C1333.01823,714.562179 1332.92871,715.514318 1332.92871,716.474609 C1332.92871,717.418625 1333.02637,718.354488 1333.22168,719.282227 C1333.41699,720.209966 1333.72623,721.113277 1334.14941,721.992188 C1334.57259,722.871098 1335.08528,723.640133 1335.6875,724.299316 C1336.28972,724.958499 1337.04248,725.491534 1337.9458,725.898438 C1338.84913,726.305341 1339.83789,726.508789 1340.91211,726.508789 Z M1334.6377,742.255859 L1334.27148,738.569336 L1339.25195,738.569336 C1340.63542,738.569336 1341.83984,738.471681 1342.86523,738.276367 C1343.89063,738.081054 1344.74511,737.759605 1345.42871,737.312012 C1346.11231,736.864418 1346.66569,736.368004 1347.08887,735.822754 C1347.51205,735.277504 1347.83349,734.569503 1348.05322,733.69873 C1348.27295,732.827958 1348.41943,731.965336 1348.49268,731.11084 C1348.56592,730.256343 1348.60254,729.210618 1348.60254,727.973633 L1348.60254,725.605469 C1347.62597,727.005215 1346.4948,728.083492 1345.20898,728.840332 C1343.92317,729.597172 1342.28744,729.975586 1340.30176,729.975586 C1338.7718,729.975586 1337.35987,729.711103 1336.06592,729.182129 C1334.77197,728.653155 1333.68148,727.949223 1332.79443,727.070312 C1331.90738,726.191402 1331.15056,725.174159 1330.52393,724.018555 C1329.8973,722.86295 1329.44157,721.666673 1329.15674,720.429688 C1328.87191,719.192702 1328.72949,717.947597 1328.72949,716.694336 C1328.72949,714.741201 1328.96956,712.934579 1329.44971,711.274414 C1329.92985,709.61425 1330.64192,708.133145 1331.58594,706.831055 C1332.52995,705.528965 1333.77099,704.507653 1335.30908,703.76709 C1336.84718,703.026526 1338.60904,702.65625 1340.59473,702.65625 C1342.35255,702.65625 1343.88655,702.993974 1345.19678,703.669434 C1346.50701,704.344893 1347.68294,705.38248 1348.72461,706.782227 L1348.72461,703.217773 L1352.7041,703.217773 L1352.7041,728.071289 C1352.7041,729.210618 1352.67562,730.207515 1352.61865,731.062012 C1352.56169,731.916508 1352.42334,732.864578 1352.20361,733.90625 C1351.98389,734.947922 1351.68685,735.843095 1351.3125,736.591797 C1350.93815,737.340499 1350.41325,738.093258 1349.73779,738.850098 C1349.06233,739.606937 1348.25668,740.217283 1347.3208,740.681152 C1346.38492,741.145022 1345.22527,741.523436 1343.8418,741.816406 C1342.45833,742.109376 1340.89584,742.255859 1339.1543,742.255859 L1334.6377,742.255859 Z" id="closing-tag" fill="#FFFFFF"></path>
            </g>
            <g id="Group-3" transform="translate(413.000000, 529.000000)" fill="#4C7EF3">
                <path d="M133.638672,108.250977 C122.591091,108.250977 113.889517,104.737991 107.533691,97.7119141 C101.177865,90.6858373 98,81.0713501 98,68.8681641 C98,57.0809958 101.073862,47.5242879 107.22168,40.1977539 C113.369497,32.8712199 121.458609,29.1386726 131.489258,29 C140.918992,29 148.395643,32.2240889 153.919434,38.6723633 C159.443224,45.1206377 162.205078,53.7297639 162.205078,64.5 C162.205078,65.0546903 162.193522,66.0716072 162.17041,67.5507812 C162.147298,69.0299553 162.135742,70.0930957 162.135742,70.7402344 L109.925781,70.7402344 C110.064454,79.3841578 112.294738,86.1212324 116.616699,90.9516602 C120.938661,95.782088 126.751266,98.1972656 134.054688,98.1972656 C142.097696,98.1972656 150.163697,96.0709848 158.25293,91.8183594 L160.055664,101.178711 C152.336224,105.893578 143.530648,108.250977 133.638672,108.250977 Z M132.078125,39 C126.161429,39 121.331073,41.0916132 117.586914,45.2749023 C113.842755,49.4581915 111.647139,55.1783491 111,62.4355469 L151.145508,62.4355469 C151.145508,54.901004 149.446794,49.1115111 146.049316,45.0668945 C142.651838,41.022278 137.994821,39 132.078125,39 Z" id="Combined-Shape"></path>
                <polygon id="Path" points="79.0429688 106.547852 67.0478516 106.547852 67.0478516 58.5673828 11.9951172 58.5673828 11.9951172 106.547852 0 106.547852 0 4 11.9951172 4 11.9951172 48.0283203 67.0478516 48.0283203 67.0478516 4 79.0429688 4"></polygon>
                <path d="M198.31543,107.678711 C190.919559,107.678711 185.684748,105.691101 182.61084,101.71582 C179.536931,97.74054 178,90.8301274 178,80.984375 L178,0.693359375 L189.509766,0 L189.509766,76.4082031 C189.509766,79.551448 189.544433,82.0706285 189.61377,83.9658203 C189.683106,85.8610121 189.856444,87.7215078 190.133789,89.5473633 C190.411134,91.3732188 190.780922,92.7483678 191.243164,93.6728516 C191.705406,94.5973354 192.375647,95.4409142 193.253906,96.2036133 C194.132166,96.9663124 195.18375,97.4747709 196.408691,97.7290039 C197.633632,97.9832369 199.147452,98.1103516 200.950195,98.1103516 C202.429369,98.1103516 205.34145,97.8330106 209.686523,97.2783203 L210.310547,106.5 C205.549455,107.285811 201.551123,107.678711 198.31543,107.678711 Z" id="Path"></path>
                <path d="M238.31543,107.678711 C230.919559,107.678711 225.684748,105.691101 222.61084,101.71582 C219.536931,97.74054 218,90.8301274 218,80.984375 L218,0.693359375 L229.509766,0 L229.509766,76.4082031 C229.509766,79.551448 229.544433,82.0706285 229.61377,83.9658203 C229.683106,85.8610121 229.856444,87.7215078 230.133789,89.5473633 C230.411134,91.3732188 230.780922,92.7483678 231.243164,93.6728516 C231.705406,94.5973354 232.375647,95.4409142 233.253906,96.2036133 C234.132166,96.9663124 235.18375,97.4747709 236.408691,97.7290039 C237.633632,97.9832369 239.147452,98.1103516 240.950195,98.1103516 C242.429369,98.1103516 245.34145,97.8330106 249.686523,97.2783203 L250.310547,106.5 C245.549455,107.285811 241.551123,107.678711 238.31543,107.678711 Z" id="Path"></path>
                <path d="M323.445312,68.5908203 C323.445312,80.3779886 320.302115,89.9346964 314.015625,97.2612305 C307.729135,104.587764 299.039118,108.250977 287.945312,108.250977 C277.267525,108.250977 268.773957,104.553097 262.464355,97.1572266 C256.154754,89.7613563 253,80.2624278 253,68.6601562 C253,56.8267637 256.166309,47.2585001 262.499023,39.9550781 C268.831737,32.6516562 277.521755,29 288.569336,29 C299.43202,29 307.960255,32.6632121 314.154297,39.9897461 C320.348338,47.3162801 323.445312,56.8498762 323.445312,68.5908203 Z M266,69.0917969 C266,78.1055138 267.999166,85.3279351 271.997559,90.7592773 C275.995951,96.1906196 281.831667,98.90625 289.504883,98.90625 C297.08565,98.90625 302.805808,96.2021755 306.665527,90.7939453 C310.525247,85.3857151 312.455078,78.1055145 312.455078,68.953125 C312.455078,59.6620629 310.548359,52.3471947 306.734863,47.0083008 C302.921368,41.6694069 297.108763,39 289.296875,39 C281.716108,39 275.938171,41.7271863 271.962891,47.1816406 C267.98761,52.636095 266,59.9394074 266,69.0917969 Z" id="Combined-Shape"></path>
                <polygon id="Path" points="396.923828 106.547852 366 4 378.549805 4 403.926758 92.2646484 429.303711 5.87207031 442.824219 5.87207031 467.438477 92.3339844 493.023438 4 505.573242 4 474.233398 106.547852 461.128906 106.547852 436.167969 20.3632812 409.958984 106.547852"></polygon>
                <path d="M582.445312,68.5908203 C582.445312,80.3779886 579.302115,89.9346964 573.015625,97.2612305 C566.729135,104.587764 558.039118,108.250977 546.945312,108.250977 C536.267525,108.250977 527.773957,104.553097 521.464355,97.1572266 C515.154754,89.7613563 512,80.2624278 512,68.6601562 C512,56.8267637 515.166309,47.2585001 521.499023,39.9550781 C527.831737,32.6516562 536.521755,29 547.569336,29 C558.43202,29 566.960255,32.6632121 573.154297,39.9897461 C579.348338,47.3162801 582.445312,56.8498762 582.445312,68.5908203 Z M524,69.0917969 C524,78.1055138 525.999166,85.3279351 529.997559,90.7592773 C533.995951,96.1906196 539.831667,98.90625 547.504883,98.90625 C555.08565,98.90625 560.805808,96.2021755 564.665527,90.7939453 C568.525247,85.3857151 570.455078,78.1055145 570.455078,68.953125 C570.455078,59.6620629 568.548359,52.3471947 564.734863,47.0083008 C560.921368,41.6694069 555.108763,39 547.296875,39 C539.716108,39 533.938171,41.7271863 529.962891,47.1816406 C525.98761,52.636095 524,59.9394074 524,69.0917969 Z" id="Combined-Shape"></path>
                <path d="M632.766602,30 C634.84669,30 636.741853,30.1386705 638.452148,30.4160156 L638.036133,41.09375 C635.90982,40.7239565 634.06088,40.5390625 632.489258,40.5390625 C626.017871,40.5390625 620.759949,42.7924579 616.715332,47.2993164 C612.670715,51.8061749 610.648438,57.387662 610.648438,64.0439453 L610.648438,106.754883 L599.069336,106.754883 C599.023112,60.0684515 599,34.7148639 599,30.6933594 L608.637695,30.6933594 L609.74707,44.3525391 C612.381849,40.0536894 615.733053,36.5869272 619.800781,33.9521484 C623.86851,31.3173696 628.190407,30 632.766602,30 Z" id="Path"></path>
                <path d="M670.31543,107.678711 C662.919559,107.678711 657.684748,105.691101 654.61084,101.71582 C651.536931,97.74054 650,90.8301274 650,80.984375 L650,0.693359375 L661.509766,0 L661.509766,76.4082031 C661.509766,79.551448 661.544433,82.0706285 661.61377,83.9658203 C661.683106,85.8610121 661.856444,87.7215078 662.133789,89.5473633 C662.411134,91.3732188 662.780922,92.7483678 663.243164,93.6728516 C663.705406,94.5973354 664.375647,95.4409142 665.253906,96.2036133 C666.132166,96.9663124 667.18375,97.4747709 668.408691,97.7290039 C669.633632,97.9832369 671.147452,98.1103516 672.950195,98.1103516 C674.429369,98.1103516 677.34145,97.8330106 681.686523,97.2783203 L682.310547,106.5 C677.549455,107.285811 673.551123,107.678711 670.31543,107.678711 Z" id="Path"></path>
                <path d="M742.023438,95.2675781 C739.527331,99.1041858 736.19924,102.154937 732.039062,104.419922 C727.878885,106.684907 723.233424,107.817383 718.102539,107.817383 C708.07189,107.817383 700.213896,104.246618 694.52832,97.1049805 C688.842745,89.9633432 686,80.2448531 686,67.9492188 C686,56.2082746 688.888969,46.7209021 694.666992,39.4868164 C700.445016,32.2527308 708.187451,28.6357422 717.894531,28.6357422 C722.932968,28.6357422 727.682432,29.7335502 732.143066,31.9291992 C736.603701,34.1248482 739.943348,37.0715961 742.162109,40.7695312 L741.954102,34.1826172 L741.954102,0.693359375 L753.394531,0 L753.394531,106.291992 L743.548828,106.291992 L742.023438,95.2675781 Z M720.216797,98.3515625 C727.843788,98.3515625 733.517722,95.9017172 737.23877,91.0019531 C740.959817,86.102189 742.820312,79.0993294 742.820312,69.9931641 C742.820312,59.731394 741.029152,52.0005143 737.446777,46.800293 C733.864403,41.6000717 728.07491,39 720.078125,39 C716.518862,39 713.375665,39.7626877 710.648438,41.2880859 C707.92121,42.8134842 705.725594,44.939765 704.061523,47.6669922 C702.397453,50.3942194 701.137862,53.5258612 700.282715,57.0620117 C699.427567,60.5981622 699,64.46938 699,68.6757812 C699,74.5924775 699.72802,79.7232856 701.184082,84.0683594 C702.640144,88.4134332 704.985986,91.8801954 708.22168,94.46875 C711.457373,97.0573046 715.455705,98.3515625 720.216797,98.3515625 Z" id="Combined-Shape"></path>
                <polygon id="Path" points="790.65918 3 790.65918 12.8457031 786.776367 76.5654297 781.298828 76.5654297 777 12.8457031 777 3"></polygon>
                <path d="M775,99.1523438 C775,96.7024617 775.820467,94.564625 777.461426,92.7387695 C779.102385,90.912914 781.35578,90 784.22168,90 C787.133804,90 789.398755,90.9013582 791.016602,92.7041016 C792.634448,94.506845 793.443359,96.6562375 793.443359,99.1523438 C793.443359,101.64845 792.634448,103.797843 791.016602,105.600586 C789.398755,107.403329 787.133804,108.304688 784.22168,108.304688 C781.35578,108.304688 779.102385,107.391773 777.461426,105.565918 C775.820467,103.740062 775,101.602226 775,99.1523438 Z" id="Path"></path>
            </g>
        </g>
    </g>
</svg>